# xmcd CD database file
# Copyright (C) 1997 Ti Kan
# 
# Track frame offsets:
#     150
#     14384
#     29991
#     45297
#     65841
#     84219
#     97522
#     110490
#     127663
#     145339
#     161507
# 
# Disc length: 2414 seconds
# 
# Revision: 1
# Processed by: cddbd v1.4b41PL1 Copyright (c) Steve Scherf et al.
# Submitted via: DiscPlay 4.0.3
# 
DISCID=83096c0b
DTITLE=Frankie Moreno - We'll Bring The Honky Tonk Home To You
DYEAR=1900
DGENRE=
TTITLE0=Louise
TTITLE1=My Tears Have a Mind of Their Own
TTITLE2=Flyin' in on the 10:10
TTITLE3=Second Hand Smoke
TTITLE4=Long Gone
TTITLE5=Every Single Thing I Do
TTITLE6=Bring the Honkytonk Home To You
TTITLE7=The John Deere Letter
TTITLE8=Hey Baby's
TTITLE9=Amanda Lynn
TTITLE10=What Love I All About
EXTD=
EXTT0=
EXTT1=
EXTT2=
EXTT3=
EXTT4=
EXTT5=
EXTT6=
EXTT7=
EXTT8=
EXTT9=
EXTT10=
PLAYORDER=
